<?xml version="1.0" encoding="UTF-8"?>
<svg xmlns="http://www.w3.org/2000/svg" xmlns:xlink="http://www.w3.org/1999/xlink" xmlns:inkscape="http://www.inkscape.org/namespaces/inkscape" xmlns:sodipodi="http://sodipodi.sourceforge.net/DTD/sodipodi-0.0.dtd" version="1.1" width="40.64mm" height="128.5mm" viewBox="0 0 40.64 128.5">
  <g inkscape:label="panel" inkscape:groupmode="layer" id="panel">
    <rect x="0" y="0" width="40.64" height="128.5" fill="#3d3d3d"/>
    <rect class="zone" x="3.00" y="38.75" width="34.64" height="68.25" rx="2.00" fill="#00e5ff" fill-opacity="0.25"/>
    <circle cx="7.5" cy="3.0" r="1.6" fill="#333333"/>
    <circle cx="33.14" cy="3.0" r="1.6" fill="#333333"/>
    <circle cx="7.5" cy="125.5" r="1.6" fill="#333333"/>
    <circle cx="33.14" cy="125.5" r="1.6" fill="#333333"/>
    <rect x="11.51" y="74.35" width="0.3" height="12.349999999999994" fill="#808080"/>
    <rect x="28.830000000000002" y="74.35" width="0.3" height="12.349999999999994" fill="#808080"/>
    <rect x="11.51" y="86.69999999999999" width="0.3" height="10.350000000000009" fill="#808080"/>
    <rect x="28.830000000000002" y="86.69999999999999" width="0.3" height="10.350000000000009" fill="#808080"/>
    <path fill="#ffffff" d="M6.244000000000001 12.3H9.736L10.591000000000001 11.445V6.855000000000001L9.736 6.000000000000001H6.244000000000001L5.389000000000001 6.855000000000001V11.445ZM6.640000000000001 11.13V7.170000000000001H9.34V11.13Z M11.869 12.3H13.047999999999998V8.25L15.972999999999999 12.3H17.061999999999998V6.000000000000001H15.883V9.951L13.003 6.000000000000001H11.869Z M18.394000000000002 12.3H22.705000000000002L23.560000000000002 11.445V6.855000000000001L22.705000000000002 6.000000000000001H18.394000000000002ZM19.645000000000003 11.13V7.170000000000001H22.309V11.13Z M24.838 12.3H29.401V11.148000000000001H26.089V9.726H28.636V8.574000000000002H26.089V7.152000000000001H29.374000000000002V6.000000000000001H24.838Z M31.183 12.3H34.477L35.332 11.445V9.357000000000001L34.522 8.547H31.606V7.134000000000001H34.054V7.953000000000001H35.305V6.855000000000001L34.45 6.000000000000001H31.21L30.355 6.855000000000001V8.889000000000001L31.165 9.708000000000002H34.081V11.166H31.579V10.302000000000001H30.328V11.445Z"/>
    <path fill="#ffffff" d="M16.805107421875 43.43154296875V44.35H16.463798828125V42.08828125H16.850517578125Q17.134697265625 42.08828125 17.279716796875 42.12783203125Q17.426201171875 42.1673828125 17.537529296875 42.27724609375Q17.732353515625 42.46767578125 17.732353515625 42.75771484375Q17.732353515625 43.06826171875 17.524345703125 43.24990234375Q17.316337890625 43.43154296875 16.963310546875 43.43154296875ZM16.805107421875 43.11513671875H16.932548828125Q17.402763671875 43.11513671875 17.402763671875 42.7533203125Q17.402763671875 42.40322265625 16.917900390625 42.40322265625H16.805107421875Z M18.425224609375 42.08828125V44.35H18.083916015625V42.08828125Z M19.592705078125 42.40908203125V44.35H19.251396484375V42.40908203125H18.731376953125V42.08828125H20.111259765625V42.40908203125Z M22.087333984375 42.20986328125V42.61416015625Q21.791435546875 42.3666015625 21.475029296875 42.3666015625Q21.126396484375 42.3666015625 20.887626953125 42.61708984375Q20.647392578125 42.86611328125 20.647392578125 43.22646484375Q20.647392578125 43.582421875 20.887626953125 43.82705078125Q21.127861328125 44.0716796875 21.476494140625 44.0716796875Q21.656669921875 44.0716796875 21.782646484375 44.0130859375Q21.852958984375 43.9837890625 21.9283984375 43.933984375Q22.003837890625 43.8841796875 22.087333984375 43.8138671875V44.22548828125Q21.794365234375 44.391015625 21.472099609375 44.391015625Q20.987236328125 44.391015625 20.644462890625 44.05263671875Q20.303154296875 43.711328125 20.303154296875 43.22939453125Q20.303154296875 42.797265625 20.588798828125 42.45888671875Q20.940361328125 42.0443359375 21.498466796875 42.0443359375Q21.803154296875 42.0443359375 22.087333984375 42.20986328125Z M22.859306640625 42.973046875H23.834892578125V42.08828125H24.176201171875V44.35H23.834892578125V43.29384765625H22.859306640625V44.35H22.517998046875V42.08828125H22.859306640625Z"/>
    <path fill="#ffffff" d="M7.6726953125 67.35V65.08828125H8.0125390625Q8.23958984375 65.08828125 8.37435546875 65.1234375Q8.5105859375 65.15859375 8.6043359375 65.24208984375Q8.69955078125 65.328515625 8.75521484375 65.457421875Q8.81234375 65.58779296875 8.81234375 65.72109375Q8.81234375 65.9642578125 8.62630859375 66.13271484375Q8.806484375 66.19423828125 8.91048828125 66.348046875Q9.01595703125 66.500390625 9.01595703125 66.7025390625Q9.01595703125 66.96767578125 8.82845703125 67.15078125Q8.7156640625 67.26357421875 8.5750390625 67.30751953125Q8.42123046875 67.35 8.18978515625 67.35ZM8.01400390625 66.05947265625H8.1209375Q8.3113671875 66.05947265625 8.399990234375 65.975244140625Q8.48861328125 65.891015625 8.48861328125 65.726953125Q8.48861328125 65.56728515625 8.39779296875 65.484521484375Q8.30697265625 65.4017578125 8.13412109375 65.4017578125H8.01400390625ZM8.01400390625 67.02919921875H8.22494140625Q8.45638671875 67.02919921875 8.56478515625 66.93837890625Q8.67904296875 66.840234375 8.67904296875 66.68935546875Q8.67904296875 66.54287109375 8.5691796875 66.44326171875Q8.46224609375 66.3451171875 8.18685546875 66.3451171875H8.01400390625Z M10.775234375 66.80068359375H9.80697265625L9.55501953125 67.35H9.18734375L10.306484375 64.94619140625L11.38607421875 67.35H11.0125390625ZM10.63607421875 66.4798828125 10.300625 65.71083984375 9.9490625 66.4798828125Z M11.6687890625 67.35V64.93447265625L13.318203125 66.66005859375V65.08828125H13.65951171875V67.4876953125L12.01009765625 65.76650390625V67.35Z M14.5428125 65.990625 15.42318359375 65.08828125H15.87875L14.8562890625 66.11220703125L15.884609375 67.35H15.427578125L14.613125 66.34365234375L14.5428125 66.41396484375V67.35H14.20150390625V65.08828125H14.5428125Z"/>
    <path fill="#ffffff" d="M22.352314453125 66.43154296875V67.35H22.011005859375V65.08828125H22.397724609375Q22.681904296875 65.08828125 22.826923828125 65.12783203125Q22.973408203125 65.1673828125 23.084736328125 65.27724609375Q23.279560546875 65.46767578125 23.279560546875 65.75771484375Q23.279560546875 66.06826171875 23.071552734375 66.24990234375Q22.863544921875 66.43154296875 22.510517578125 66.43154296875ZM22.352314453125 66.11513671875H22.479755859375Q22.949970703125 66.11513671875 22.949970703125 65.7533203125Q22.949970703125 65.40322265625 22.465107421875 65.40322265625H22.352314453125Z M23.518330078125 66.20888671875Q23.518330078125 65.73134765625 23.868427734375 65.38857421875Q24.217060546875 65.04580078125 24.706318359375 65.04580078125Q25.189716796875 65.04580078125 25.535419921875 65.39150390625Q25.882587890625 65.73720703125 25.882587890625 66.2220703125Q25.882587890625 66.70986328125 25.533955078125 67.04970703125Q25.183857421875 67.391015625 24.688740234375 67.391015625Q24.250751953125 67.391015625 23.902119140625 67.08779296875Q23.518330078125 66.75234375 23.518330078125 66.20888671875ZM23.862568359375 66.21328125Q23.862568359375 66.58828125 24.114521484375 66.82998046875Q24.365009765625 67.0716796875 24.693134765625 67.0716796875Q25.049091796875 67.0716796875 25.293720703125 66.8255859375Q25.538349609375 66.5765625 25.538349609375 66.219140625Q25.538349609375 65.85732421875 25.296650390625 65.6126953125Q25.056416015625 65.3666015625 24.701923828125 65.3666015625Q24.348896484375 65.3666015625 24.105732421875 65.6126953125Q23.862568359375 65.855859375 23.862568359375 66.21328125Z M27.590595703125 65.4251953125 27.313740234375 65.5892578125Q27.236103515625 65.4544921875 27.165791015625 65.4134765625Q27.092548828125 65.3666015625 26.976826171875 65.3666015625Q26.834736328125 65.3666015625 26.740986328125 65.44716796875Q26.647236328125 65.52626953125 26.647236328125 65.64638671875Q26.647236328125 65.8119140625 26.893330078125 65.91298828125L27.118916015625 66.0052734375Q27.394306640625 66.1166015625 27.521748046875 66.277001953125Q27.649189453125 66.43740234375 27.649189453125 66.6703125Q27.649189453125 66.98232421875 27.441181640625 67.1859375Q27.231708984375 67.391015625 26.921162109375 67.391015625Q26.626728515625 67.391015625 26.434833984375 67.21669921875Q26.245869140625 67.0423828125 26.198994140625 66.7259765625L26.544697265625 66.6498046875Q26.568134765625 66.8490234375 26.626728515625 66.9251953125Q26.732197265625 67.0716796875 26.934345703125 67.0716796875Q27.094013671875 67.0716796875 27.199482421875 66.96474609375Q27.304951171875 66.8578125 27.304951171875 66.69375Q27.304951171875 66.62783203125 27.286640625 66.572900390625Q27.268330078125 66.51796875 27.22951171875 66.471826171875Q27.190693359375 66.42568359375 27.129169921875 66.385400390625Q27.067646484375 66.3451171875 26.982685546875 66.30849609375L26.764423828125 66.21767578125Q26.300068359375 66.02138671875 26.300068359375 65.64345703125Q26.300068359375 65.38857421875 26.494892578125 65.2171875Q26.689716796875 65.0443359375 26.979755859375 65.0443359375Q27.370869140625 65.0443359375 27.590595703125 65.4251953125Z M28.402119140625 65.08828125V67.35H28.060810546875V65.08828125Z M29.569599609375 65.40908203125V67.35H29.228291015625V65.40908203125H28.708271484375V65.08828125H30.088154296875V65.40908203125Z M30.734150390625 65.08828125V67.35H30.392841796875V65.08828125Z M31.164814453125 66.20888671875Q31.164814453125 65.73134765625 31.514912109375 65.38857421875Q31.863544921875 65.04580078125 32.352802734375004 65.04580078125Q32.836201171875004 65.04580078125 33.181904296875004 65.39150390625Q33.529072265625004 65.73720703125 33.529072265625004 66.2220703125Q33.529072265625004 66.70986328125 33.180439453125004 67.04970703125Q32.830341796875004 67.391015625 32.335224609375004 67.391015625Q31.897236328125 67.391015625 31.548603515625 67.08779296875Q31.164814453125 66.75234375 31.164814453125 66.20888671875ZM31.509052734375 66.21328125Q31.509052734375 66.58828125 31.761005859375 66.82998046875Q32.011494140625004 67.0716796875 32.339619140625004 67.0716796875Q32.695576171875004 67.0716796875 32.940205078125004 66.8255859375Q33.184833984375004 66.5765625 33.184833984375004 66.219140625Q33.184833984375004 65.85732421875 32.943134765625004 65.6126953125Q32.702900390625004 65.3666015625 32.348408203125004 65.3666015625Q31.995380859375 65.3666015625 31.752216796875 65.6126953125Q31.509052734375 65.855859375 31.509052734375 66.21328125Z M33.958271484375004 67.35V64.93447265625L35.607685546875004 66.66005859375V65.08828125H35.948994140625004V67.4876953125L34.299580078125004 65.76650390625V67.35Z"/>
    <path fill="#ffffff" d="M17.306083984375 120.90888671874998Q17.306083984375 120.43134765624998 17.656181640625 120.08857421874998Q18.004814453125 119.74580078124998 18.494072265625 119.74580078124998Q18.977470703125 119.74580078124998 19.323173828125 120.09150390624998Q19.670341796875 120.43720703124998 19.670341796875 120.92207031249998Q19.670341796875 121.40986328124998 19.321708984375 121.74970703124998Q18.971611328125 122.09101562499998 18.476494140625 122.09101562499998Q18.038505859375 122.09101562499998 17.689873046875 121.78779296874998Q17.306083984375 121.45234374999998 17.306083984375 120.90888671874998ZM17.650322265625 120.91328124999998Q17.650322265625 121.28828124999998 17.902275390625 121.52998046874998Q18.152763671875 121.77167968749998 18.480888671875 121.77167968749998Q18.836845703125 121.77167968749998 19.081474609375 121.52558593749998Q19.326103515625 121.27656249999998 19.326103515625 120.91914062499998Q19.326103515625 120.55732421874998 19.084404296875 120.31269531249998Q18.844169921875 120.06660156249998 18.489677734375 120.06660156249998Q18.136650390625 120.06660156249998 17.893486328125 120.31269531249998Q17.650322265625 120.55585937499998 17.650322265625 120.91328124999998Z M20.440849609375 119.78828124999998V121.15058593749998Q20.440849609375 121.44208984374998 20.536064453125 121.57685546874998Q20.678154296875 121.77167968749998 20.935966796875 121.77167968749998Q21.195244140625 121.77167968749998 21.337333984375 121.57685546874998Q21.432548828125 121.44648437499998 21.432548828125 121.15058593749998V119.78828124999998H21.773857421875V121.24433593749998Q21.773857421875 121.60175781249998 21.551201171875 121.83320312499998Q21.300712890625 122.09101562499998 20.935966796875 122.09101562499998Q20.571220703125 122.09101562499998 20.322197265625 121.83320312499998Q20.099541015625 121.60175781249998 20.099541015625 121.24433593749998V119.78828124999998Z M22.939873046875 120.10908203124998V122.04999999999998H22.598564453125V120.10908203124998H22.078544921875V119.78828124999998H23.458427734375V120.10908203124998Z"/>
  </g>
  <g inkscape:label="components" inkscape:groupmode="layer" id="components" style="display:none">
    <rect id="SCREEN#Widget" x="3.0" y="14.35" width="34.64" height="22.0" fill="#ffff00"/>
    <circle id="PITCH_PARAM#RoundBlackKnob" cx="14.145" cy="51.35" r="2" fill="#ff0000"/>
    <circle id="VOCT_INPUT#PJ301MPort" cx="26.495" cy="51.35" r="2" fill="#00ff00"/>
    <circle id="BANK_PARAM#RoundBlackKnob" cx="11.66" cy="74.35" r="2" fill="#ff0000"/>
    <circle id="BANK_INPUT#PJ301MPort" cx="11.66" cy="86.69999999999999" r="2" fill="#00ff00"/>
    <circle id="POSITION_PARAM#RoundBlackKnob" cx="28.98" cy="74.35" r="2" fill="#ff0000"/>
    <circle id="POSITION_INPUT#PJ301MPort" cx="28.98" cy="86.69999999999999" r="2" fill="#00ff00"/>
    <circle id="BANK_AMT_PARAM#Trimpot" cx="11.66" cy="97.05" r="2" fill="#ff0000"/>
    <circle id="POSITION_AMT_PARAM#Trimpot" cx="28.98" cy="97.05" r="2" fill="#ff0000"/>
    <circle id="OUT_OUTPUT#PJ301MPort" cx="20.32" cy="113.69999999999999" r="2" fill="#0000ff"/>
  </g>
</svg>
